<?xml version="1.0" encoding="UTF-8"?>
<svg id="drawing" xmlns="http://www.w3.org/2000/svg" viewBox="0 0 105.56 125.77">
  <defs>
    <style>
      .cls-1 {
        fill: none;
        stroke-width: 2px;
      }

      .cls-1, .cls-2 {
        stroke: #fff;
        stroke-linecap: round;
        stroke-miterlimit: 10;
      }

      .cls-2 {
        fill: #fff;
        stroke-width: .25px;
      }
    </style>
  </defs>
  <path class="cls-1" d="M47.87,33.82c2.13-2.13,6.61-6.54,16.06-4.92,15.23,2.61,18.38,19.57,17.17,21.02-.21.25-2.64-3.99-8.65-8.07-12.41-8.42-25.41-7.2-24.58-8.03Z"/>
  <path class="cls-2" d="M69.49,38.79c-.05-.78-.35-2.13-.8-3.17-.51-1.15-.21-.6-.83-1.72-.12-.22-.27-.42-.12-.51.32-.19,1.37.91,2.01,1.79,1.29,1.77,2.05,5.16,1.44,4.83-.38-.2-1.63-.19-1.69-1.23Z"/>
  <path class="cls-1" d="M86.04,123.5s-3.91-1.99-7.52-1.87c-6.17,1-6.67,3.06-10.97,2.89-4.3-.17-7.2-3.04-11.98-3.14-3.14-.07-11.65,3.73-15.02,3.36-4.47-.49-7.3-2.62-12.01-2.79-1.71-.06-5.8.64-9.02,2.08"/>
  <path class="cls-1" d="M98.69,113.58c-.46.09-1.65.4-2.54.43-4.28.11-5.57-2.13-9.08-2.67-2.62-.4-4.9.41-9.47,2.03-1.74.62-3.33,1.13-5.76,1.41-1.66.19-3.06-.12-4.03-.42-3.06-.96-3.78-1.41-5.99-2.17-3.49-1.2-6.51-.56-8.95.29-3,1.05-2.98,1.04-6.91,2.17-2.4.69-3.91.78-5.87.67-2.89-.17-4.18-1.35-8.05-2.6-2.11-.68-3.51-.82-5.14-.58-.6.09-3.1.7-7.07,1.85-2.56.74-3.18.93-4.27,1.06-2.16.25-5.32-.38-6.53-.66"/>
  <path class="cls-1" d="M104.56,103.88c-.79.41-2.51.82-4.1.97-3.88.38-7.15-2.81-11.3-3.02-3.62-.19-7.8.89-9.6,1.63-2.11.87-5.94,2.01-7.37,2.11-4.49.32-8.47-2.19-12.77-2.98-3.32-.61-4.95.59-12.61,2.25-2.34.51-3.36.82-5.24.85-3.97.06-6.48-1.57-9.97-2.31-3.37-.71-5.86.23-13.09,1.46-4.75.81-5.77,1.35-8.6,1.21-3.56-.17-7.03-1.65-8.93-2.54"/>
  <path class="cls-1" d="M91.2,101.81c-1.57-2.38-4.28-6.24-7.66-9.23-3.72-3.29-7.82-5.22-10.55-6.5"/>
  <path class="cls-1" d="M63.22,82.9c-3.37-1.29-6.02-1.08-7.99-1.03-6.87.17-7.94,3.1-14.32,6.5-4.17,2.22-5.42,1.24-8.86,2.65-3.94,1.61-8.96,4.73-13.78,13.35"/>
  <path class="cls-2" d="M75.22,43.27c-1.15-1.1-.9-2.73-1.09-3.56-.29-1.24-.18-1.26-.33-1.89-.08-.36-.14-.61-.07-.71.21-.3,1.38,1.42,1.96,3.01.5,1.36.79,3.78.4,3.47-.68-.55-.41.13-.88-.32Z"/>
  <path class="cls-2" d="M63.69,36.55c-.88-.22-.7-1.14-1.24-2.2-.31-.62-.87-1.72-1.96-2.23-.25-.12-.56-.22-.55-.33.02-.16.64-.28,1.09-.25,1.23.08,1.97,1.06,2.81,2.3.63.93,1.93,3.42,1.42,3.17-.85-.42-.46-.19-1.57-.46Z"/>
  <path class="cls-2" d="M58.95,34.76c.53.19-1.5-2.05-3.13-2.81-.67-.31-.76-.23-.8-.18-.22.24.76,1.17.98,1.48.44.59.89,1.21,1.48,1.25,1.02.07.34-.14,1.47.27Z"/>
  <path class="cls-1" d="M45.84,33.25c.11-3.01,3.16-10.48,11.17-15.73,12.93-8.46,27.23,3.52,27.33,5.4.02.32-6.47-2.48-13.64-1.37-14.82,2.29-24.9,12.87-24.86,11.7Z"/>
  <path class="cls-2" d="M67.52,21.24c-.57-.54-1.7-1.33-2.74-1.77-1.16-.5-.56-.3-1.78-.69-.24-.08-.49-.12-.44-.29.11-.36,1.63-.27,2.69-.06,2.14.42,5.01,2.38,4.34,2.56-.42.11-1.32.97-2.07.25Z"/>
  <path class="cls-2" d="M75.15,21.26c-1.59-.03-2.52-1.38-3.23-1.86-1.05-.71-.99-.8-1.53-1.16-.31-.21-.51-.35-.53-.47-.05-.36,1.98.1,3.49.87,1.29.65,3.15,2.23,2.66,2.26-.87.06-.21.38-.86.37Z"/>
  <path class="cls-2" d="M62.14,23.37c-.8.44-1.29-.35-2.4-.76-.65-.24-.96-.21-2.11-.53-.41-.11-.61-.39-.54-.48.23-.28.21-.41.71-.49,1.22-.17,1.15-.16,2.61.17,1.1.25,3.74,1.19,3.2,1.35-.9.27-.47.18-1.46.73Z"/>
  <path class="cls-2" d="M58.1,24.92c.51-.22-2.49-.48-4.2.07-.7.23-.71.35-.71.41,0,.32,1.35.34,1.72.41.72.13,1.47.28,1.94-.09.79-.64.15-.33,1.26-.81Z"/>
  <path class="cls-1" d="M65.83,1.71c.21.25-3.54,1.23-8.9,6.13-10.52,9.62-11.86,25.39-12.52,24.42"/>
  <path class="cls-1" d="M45.27,33.37c-1.7-2.49-3.84-10.26-.49-19.24C50.18-.35,64.63.26,65.83,1.71"/>
  <path class="cls-2" d="M55.23,10.38c-.78-.1-2.16-.06-3.26.2-1.23.28-.62.09-1.85.5-.24.08-.46.19-.53.02-.13-.35,1.15-1.18,2.14-1.64,1.98-.93,5.45-1.05,5.02-.51-.27.34-.49,1.57-1.52,1.43Z"/>
  <path class="cls-2" d="M60.32,5.39c-1.23,1-2.81.56-3.67.66-1.26.14-1.28.02-1.92.1-.37.04-.62.07-.71-.02-.27-.24,1.58-1.2,3.22-1.59,1.41-.33,3.84-.33,3.49.02"/>
  <path class="cls-2" d="M51.78,14.98c-.38.83-1.25.48-2.39.81-.66.19-.86.12-2.08.98-.23.16-.73.24-.85.24-.16,0-.32.02-.21-.41.3-1.2,1.52-1.68,2.89-2.27,1.03-.45,3.72-1.26,3.37-.8-.57.75-.27.42-.74,1.45Z"/>
  <path class="cls-1" d="M11.4,9.97c1.62.37,9.55,4.28,15.04,8.52,11.02,8.5,17.82,13.86,16.92,15.39"/>
  <path class="cls-1" d="M43.33,33.38c-1.07-3.58-2.8-10.32-8.74-17.01-10.14-11.43-21.88-7.37-23.51-6.33"/>
  <path class="cls-2" d="M23.18,16.35c.69-.37,2-.81,3.13-.95,1.25-.16.62-.13,1.9-.18.25,0,.5.02.5-.16,0-.37-1.49-.7-2.57-.79-2.18-.19-5.47.92-4.88,1.27.37.22,1,1.3,1.92.81Z"/>
  <path class="cls-2" d="M17.09,13.29c1.51.51,2.84-.45,3.67-.66,1.23-.31,1.21-.42,1.83-.58.36-.09.6-.15.66-.26.17-.32-1.9-.57-3.58-.36-1.43.18-3.72,1.03-3.26,1.23"/>
  <path class="cls-2" d="M27.2,19.92c1.39.78,2.87.08,3.73.03,1.27-.08,1.26-.19,1.91-.23.37-.02.62-.04.7-.14.23-.28-1.76-.91-3.45-1.02-1.44-.09-3.84.33-3.44.61"/>
  <path class="cls-1" d="M45.62,71.85c.31-.09-1.75-3.82-3.17-10.94-2.94-14.71,3.23-26.21,2.15-25.77"/>
  <path class="cls-1" d="M44.87,35.12c-2.79,1.14-8.59,3.55-10.77,12.88-3.51,15.05,9.72,24.4,11.52,23.85"/>
  <path class="cls-2" d="M41.33,57.79c-.67-.5-1.71-1.54-2.39-2.51-.75-1.09-.42-.52-1.09-1.68-.13-.22-.23-.47-.39-.4-.34.14.09,1.62.53,2.65.89,2.06,3.5,4.67,3.53,4,.02-.42.69-1.4-.2-2.06Z"/>
  <path class="cls-2" d="M43.14,65.86c-.32-1.56-1.83-2.21-2.43-2.82-.89-.9-.98-.82-1.43-1.28-.26-.26-.44-.44-.56-.44-.36.02.47,1.92,1.5,3.26.88,1.14,2.78,2.68,2.72,2.19-.1-.87.33-.28.2-.91Z"/>
  <path class="cls-2" d="M41.97,51.37c.14-.9-.77-1.09-1.54-2-.45-.53-.64-.64-1.47-2.18-.13-.25-.4-1-.51-1.03-.15-.05-.34.4-.33.85.03,1.31.49,2.19,1.3,3.44.61.94,2.4,3.11,2.37,2.54-.06-.94,0-.5.19-1.62Z"/>
  <path class="cls-2" d="M41.91,46.16c-.03.56-1.31-2.18-1.37-3.97-.03-.74.08-.79.14-.81.3-.11.79,1.15.98,1.48.37.63.77,1.29.58,1.85-.33.96-.26.26-.33,1.46Z"/>
  <path class="cls-1" d="M18.92,65.28c.29.14.62-7.27,4.44-13.44,7.9-12.75,21.21-17.54,20.12-17.95"/>
  <path class="cls-1" d="M44.41,34.77c-2.81-1.08-13.19-2.14-20.77,3.73-11.73,9.08-6.57,26-4.87,26.83"/>
  <path class="cls-2" d="M23.36,51.41c-.36-.7-.78-2.01-.92-3.14-.15-1.25-.12-.62-.15-1.91,0-.25.02-.5-.16-.5-.37,0-.72,1.48-.82,2.57-.21,2.17.85,5.49,1.22,4.89.23-.37,1.31-.99.83-1.91Z"/>
  <path class="cls-2" d="M20.43,58.64c.38-1.55-.7-2.78-.98-3.59-.42-1.2-.53-1.16-.74-1.77-.12-.35-.21-.59-.32-.63-.33-.14-.4,1.94-.04,3.59.31,1.41,1.36,3.61,1.52,3.14.28-.83.42-.11.57-.74Z"/>
  <path class="cls-2" d="M27.4,45.85c.64-.65,0-1.34-.09-2.52-.05-.69.05-.99.06-2.18,0-.43-.21-.69-.31-.65-.33.14-.45.09-.66.56-.5,1.13-.47,1.06-.54,2.56-.05,1.12.13,3.93.44,3.44.5-.8.3-.4,1.1-1.21Z"/>
  <path class="cls-2" d="M32.11,37.97c.31.09-.03,1.4-.06,1.77-.06.73-.12,1.5-.6,1.84-.83.59-.36.06-1.11,1-.35.44.2-2.53,1.19-4.03.41-.62.53-.59.59-.58"/>
  <path class="cls-1" d="M2.08,40.87c.16.23,4.71-4.49,11.44-6.71,13.88-4.6,31.13.3,30.47-.5"/>
  <path class="cls-1" d="M41.4,32.5c-1.6-2.82-11.63-8.42-21.3-7.9-14.89.79-18.94,14.91-18.03,16.27"/>
  <path class="cls-2" d="M16.48,32.51c.22-.65.82-1.71,1.51-2.47.77-.85.34-.45,1.23-1.25.17-.15.37-.29.23-.4-.29-.24-1.62.44-2.46,1.02-1.71,1.17-3.23,3.85-2.52,3.72.44-.08,1.72.24,2.01-.62Z"/>
  <path class="cls-2" d="M9.6,35.2c1.29-.72,1.62-2.32,2.05-3.05.64-1.09.56-1.14.89-1.69.19-.32.31-.53.29-.65-.07-.34-1.58.96-2.57,2.29-.85,1.14-1.88,3.34-1.47,3.15.73-.33.29.24.81-.06Z"/>
  <path class="cls-2" d="M22.68,31.83c.91.08.95-.69,1.72-1.36.45-.39.73-.48,1.58-1.09.3-.22.35-.49.24-.54-.33-.14-.38-.25-.86-.14-1.15.26-1.08.25-2.18.98-.83.55-2.68,2.12-2.12,2.07.92-.09.49-.02,1.62.08Z"/>
  <path class="cls-2" d="M32.26,30c-.47.45-1.35,2.11-1.95,2.11-1.02,0-1-.2-2.15.05-.54.12,1.11-1.43,2.78-1.94.69-.21,1.28-.25,1.32-.21"/>
  <path class="cls-1" d="M44,37.08c6.94,6.56,10.84,11.87,13.38,16.42,3.01,5.38,6.3,12.36,7.03,19.43.72,6.99-.32,12.62-1.54,16.02"/>
  <path class="cls-2" d="M62.81,89.3c-.52-.14-1.82-.41-3.86.3-2.06.71-2.52,1.6-2.62,1.82-.07.15-.1.28-.04.35.2.25,1.28-.42,2.34-.88,2.59-1.13,4.83-.94,4.82-1.28,0-.13-.34-.23-.64-.31Z"/>
  <path class="cls-2" d="M71.53,80.39c-.3-.23-.75.13-1.66.37-1.57.41-2.76-.03-2.81.21-.04.18.64.51,1.03.66.86.34,2.81.86,3.43,0,.28-.39.28-1.02,0-1.24Z"/>
  <path class="cls-2" d="M71.21,73.43c-.33-.11-.71.26-1.56.63-1.47.64-2.7.57-2.71.76-.01.14.71.24,1.12.27.89.07,2.88.04,3.35-.74.21-.35.1-.82-.2-.92Z"/>
  <path class="cls-2" d="M70.85,66.76c-.33-.11-.86-.06-1.71.31-1.47.64-2.54.89-2.56,1.08-.01.14.71.24,1.12.27.89.07,2.88.04,3.35-.74.21-.35.1-.82-.2-.92Z"/>
  <path class="cls-2" d="M67.96,59.57c-.33-.05-.82.1-1.52.63-1.22.9-2.17,1.34-2.14,1.53.02.14.71.1,1.1.05.84-.1,2.69-.5,2.96-1.35.12-.38-.08-.82-.39-.86Z"/>
  <path class="cls-2" d="M64.69,53.5c-.33-.02-.81.17-1.47.74-1.15.99-2.06,1.5-2.02,1.69.03.14.72.04,1.1-.03.83-.16,2.64-.71,2.85-1.57.09-.39-.15-.81-.46-.83Z"/>
  <path class="cls-2" d="M60.44,48.15c-.32-.06-.75.09-1.32.65-.99.96-1.8,1.41-1.74,1.62.04.16.69.13,1.05.09.78-.09,2.44-.48,2.54-1.4.04-.41-.23-.9-.52-.95Z"/>
  <path class="cls-2" d="M56.63,43.14c-.28-.11-.68-.03-1.23.41-.96.77-1.72,1.08-1.68,1.29.03.16.61.24.93.26.7.04,2.22-.07,2.38-.94.07-.39-.14-.91-.4-1.01Z"/>
  <path class="cls-2" d="M51.45,38.37c-.27-.09-.6.02-1.01.48-.7.81-1.32,1.17-1.25,1.36.05.15.58.19.86.18.62,0,1.94-.22,1.92-1.08,0-.38-.28-.87-.53-.95Z"/>
  <path class="cls-1" d="M45.25,33.93c4.68,3.51,13.31,11.36,19.33,20.62,9.2,14.15,7.79,29.61,7.41,36"/>
  <path class="cls-2" d="M76.48,92.67c.12-.21-1.16-1.7-3.05-2.2-3.14-.84-5.15-.32-6.9.53-.76.37-1.61,1.08-1.51,1.3.11.25,1.29-.23,3.25-.53,1.2-.18,3.07-.44,5.18-.02,1.87.38,2.93,1.09,3.03.92Z"/>
</svg>